<mxfile host="Electron" modified="2023-10-17T07:17:11.644Z" agent="Mozilla/5.0 (Windows NT 10.0; Win64; x64) AppleWebKit/537.36 (KHTML, like Gecko) draw.io/22.0.2 Chrome/114.0.5735.289 Electron/25.8.4 Safari/537.36" etag="K4SbC021JgzB8qCs2NXM" version="22.0.2" type="device">
  <diagram name="Page-1" id="qKaU0Q-FvelUafF9ekBP">
    <mxGraphModel dx="1036" dy="606" grid="1" gridSize="10" guides="1" tooltips="1" connect="1" arrows="1" fold="1" page="1" pageScale="1" pageWidth="850" pageHeight="1100" math="0" shadow="0">
      <root>
        <mxCell id="0" />
        <mxCell id="1" parent="0" />
        <mxCell id="NtewO8Oyfw1NCg4WtKrz-3" value="" style="edgeStyle=orthogonalEdgeStyle;rounded=0;orthogonalLoop=1;jettySize=auto;html=1;entryX=0;entryY=0.5;entryDx=0;entryDy=0;" edge="1" parent="1" source="NtewO8Oyfw1NCg4WtKrz-1" target="NtewO8Oyfw1NCg4WtKrz-2">
          <mxGeometry relative="1" as="geometry" />
        </mxCell>
        <mxCell id="NtewO8Oyfw1NCg4WtKrz-7" style="edgeStyle=orthogonalEdgeStyle;rounded=0;orthogonalLoop=1;jettySize=auto;html=1;entryX=0;entryY=0.5;entryDx=0;entryDy=0;" edge="1" parent="1" source="NtewO8Oyfw1NCg4WtKrz-1" target="NtewO8Oyfw1NCg4WtKrz-5">
          <mxGeometry relative="1" as="geometry" />
        </mxCell>
        <mxCell id="NtewO8Oyfw1NCg4WtKrz-12" style="edgeStyle=orthogonalEdgeStyle;rounded=0;orthogonalLoop=1;jettySize=auto;html=1;entryX=0.5;entryY=0;entryDx=0;entryDy=0;" edge="1" parent="1" source="NtewO8Oyfw1NCg4WtKrz-1" target="NtewO8Oyfw1NCg4WtKrz-8">
          <mxGeometry relative="1" as="geometry" />
        </mxCell>
        <mxCell id="NtewO8Oyfw1NCg4WtKrz-1" value="Cache" style="rounded=1;whiteSpace=wrap;html=1;fillColor=#dae8fc;strokeColor=#6c8ebf;" vertex="1" parent="1">
          <mxGeometry x="40" y="40" width="120" height="60" as="geometry" />
        </mxCell>
        <mxCell id="NtewO8Oyfw1NCg4WtKrz-2" value="InMemory" style="whiteSpace=wrap;html=1;rounded=1;fillColor=#f5f5f5;fontColor=#333333;strokeColor=#666666;" vertex="1" parent="1">
          <mxGeometry x="130" y="150" width="120" height="60" as="geometry" />
        </mxCell>
        <mxCell id="NtewO8Oyfw1NCg4WtKrz-5" value="Redis" style="whiteSpace=wrap;html=1;rounded=1;fillColor=#f5f5f5;fontColor=#333333;strokeColor=#666666;" vertex="1" parent="1">
          <mxGeometry x="130" y="230" width="120" height="60" as="geometry" />
        </mxCell>
        <mxCell id="NtewO8Oyfw1NCg4WtKrz-8" value="ICachable&amp;lt;T&amp;gt;" style="swimlane;fontStyle=0;childLayout=stackLayout;horizontal=1;startSize=30;horizontalStack=0;resizeParent=1;resizeParentMax=0;resizeLast=0;collapsible=1;marginBottom=0;whiteSpace=wrap;html=1;" vertex="1" parent="1">
          <mxGeometry x="425" y="90" width="140" height="120" as="geometry" />
        </mxCell>
        <mxCell id="NtewO8Oyfw1NCg4WtKrz-9" value="Item 1" style="text;strokeColor=none;fillColor=none;align=left;verticalAlign=middle;spacingLeft=4;spacingRight=4;overflow=hidden;points=[[0,0.5],[1,0.5]];portConstraint=eastwest;rotatable=0;whiteSpace=wrap;html=1;" vertex="1" parent="NtewO8Oyfw1NCg4WtKrz-8">
          <mxGeometry y="30" width="140" height="30" as="geometry" />
        </mxCell>
        <mxCell id="NtewO8Oyfw1NCg4WtKrz-10" value="Item 2" style="text;strokeColor=none;fillColor=none;align=left;verticalAlign=middle;spacingLeft=4;spacingRight=4;overflow=hidden;points=[[0,0.5],[1,0.5]];portConstraint=eastwest;rotatable=0;whiteSpace=wrap;html=1;" vertex="1" parent="NtewO8Oyfw1NCg4WtKrz-8">
          <mxGeometry y="60" width="140" height="30" as="geometry" />
        </mxCell>
        <mxCell id="NtewO8Oyfw1NCg4WtKrz-11" value="Item 3" style="text;strokeColor=none;fillColor=none;align=left;verticalAlign=middle;spacingLeft=4;spacingRight=4;overflow=hidden;points=[[0,0.5],[1,0.5]];portConstraint=eastwest;rotatable=0;whiteSpace=wrap;html=1;" vertex="1" parent="NtewO8Oyfw1NCg4WtKrz-8">
          <mxGeometry y="90" width="140" height="30" as="geometry" />
        </mxCell>
      </root>
    </mxGraphModel>
  </diagram>
</mxfile>
